# File generated by ImageToStl.com - Free Image and 3D model conversion tools

mtllib SM_Prop_Slatbox_01.mtl

# SM_Prop_Slatbox_01_0
o obj1
v -6.2010498 36.36886597 20.48306084
v -9.13928223 34.34020233 22.01080322
v -0.7835083 34.1449585 22.01080322
v -20.07666016 36.36886597 22.01080322
v 17.89129448 34.939888 -22.01080322
v 18.01348686 36.3688736 -20.11965942
v 22.23431396 36.3688736 -22.01080322
v 10.56964111 36.36886597 -22.01080322
v 8.88708496 36.36886597 22.01080322
v -32.02288818 36.3688736 -7.04638672
v -29.71496582 33.51753235 -5.34219313
v -29.71496582 36.3688736 -12.26937866
v -29.71496582 36.3688736 2.30422974
v -33.01116943 2.89535308 22.01080322
v 33.01123047 12.93215752 22.01080322
v -33.01116943 12.13032532 22.01080322
v 33.01123047 2.89535308 22.01080322
v -33.01116943 12.93215752 -22.01080322
v 33.01123047 2.89535308 -22.01080322
v -33.01116943 2.89535308 -22.01080322
v 33.01123047 11.03737068 -22.01080322
v 34.44036865 12.02760506 -9.66586208
v 34.44036865 3.57132101 -9.66586208
v -33.01116943 2.89535308 -22.01080322
v -34.44030762 11.45435905 9.57913208
v -33.01116943 12.93215752 -22.01080322
v -34.44030762 3.57132101 9.57913208
v 29.71502495 12.93215752 18.45498657
v -29.71496582 12.93215752 18.45498657
v 31.00146294 12.2561903 -8.10437012
v 29.71502495 12.93215752 -18.45501709
v -29.71496582 12.93215752 -18.45501709
v -31.00146294 12.2561903 8.03164673
v -34.44030762 11.45435905 9.57913208
v -29.71496582 2.89535308 -18.45501709
v 29.71502495 12.93215752 -18.45501709
v -29.71496582 12.93215752 -18.45501709
v 29.71502495 2.89535308 -18.45501709
v 31.00146294 12.2561903 -8.10437012
v 31.00146294 3.57132101 -8.10437012
v 29.71502495 2.89535308 18.45498657
v -29.71496582 12.93215752 18.45498657
v 29.71502495 12.93215752 18.45498657
v -29.71496582 2.89535308 18.45498657
v -31.00146294 12.2561903 8.03164673
v -31.00146294 3.57132101 8.03164673
v 9.84918213 23.36785126 23.53063965
v 33.01123047 16.74897003 22.01080322
v 33.01123047 24.46382141 22.01080322
v 9.84918213 16.31634521 23.53063965
v 0.10009766 14.16087437 -23.53063965
v 33.01123047 24.46382141 -22.01080322
v 33.01123047 16.74897003 -22.01080322
v -0.55877686 22.6592598 -23.53063965
v -33.01116943 24.46382141 -22.01080322
v -33.01116943 15.86528873 -22.01080322
v -33.01116943 15.86528873 -22.01080322
v -33.01116943 24.46382141 22.01080322
v -33.01116943 24.46382141 -22.01080322
v -33.01116943 15.86528873 22.01080322
v 29.71502495 24.46382141 -18.45501709
v 29.71502495 24.46382141 18.45498657
v 8.86572266 23.36785126 19.72930908
v -29.71496582 24.46382141 18.45498657
v -29.71496582 24.46382141 -18.45501709
v -0.16296387 23.1785202 -19.72933769
v 0.49597165 14.18989277 -19.72933769
v 29.71502495 14.4270153 -18.45501709
v 29.71502495 14.4270153 18.45498657
v 33.01123047 16.74897003 22.01080322
v 8.86572266 14.6067276 19.72930908
v 9.84918213 16.31634521 23.53063965
v -33.01116943 15.86528873 22.01080322
v -29.71496582 14.4270153 18.45498657
v -29.71496582 14.4270153 -18.45501709
v -0.16296387 23.1785202 -19.72933769
v 29.71502495 24.46382141 -18.45501709
v -29.71496582 24.46382141 -18.45501709
v 29.71502495 24.46382141 18.45498657
v 8.86572266 23.36785126 19.72930908
v -29.71496582 24.46382141 18.45498657
v 33.01123047 26.33206558 22.01080322
v 33.01123047 36.3688736 22.01080322
v -11.80053616 26.67221069 22.01080322
v -33.01116943 26.33206558 22.01080322
v -33.01116943 36.3688736 22.01080322
v 33.01123047 26.33206558 -22.01080322
v 33.01123047 36.3688736 -22.01080322
v -33.01116943 26.33206558 -22.01080322
v -33.01116943 36.3688736 -22.01080322
v -33.01116943 26.33206558 -22.01080322
v -33.01116943 36.3688736 -22.01080322
v 29.71502495 36.3688736 18.45498657
v 29.71502495 36.3688736 -18.45501709
v -5.83203077 36.36886597 18.45498657
v -29.71496582 36.3688736 18.45498657
v -29.71496582 36.3688736 -18.45501709
v -29.71496582 36.3688736 -12.26937866
v -32.02288818 36.3688736 -7.04638672
v -29.71496582 36.3688736 2.30422974
v -29.71496582 26.33206558 -18.45501709
v 29.71502495 36.3688736 -18.45501709
v -29.71496582 36.3688736 -18.45501709
v 29.71502495 26.33206558 -18.45501709
v 29.71502495 36.3688736 18.45498657
v 29.71502495 26.33206558 18.45498657
v -5.83203077 36.36886597 18.45498657
v -11.15362453 26.67221069 18.45498657
v -29.71496582 26.33206558 18.45498657
v -29.71496582 36.3688736 18.45498657
v -32.32763672 2.89535308 21.06768799
v -27.10223198 37.8866539 21.06768799
v -32.32763672 37.8866539 21.06768799
v -27.10223198 2.89535308 21.06768799
v -27.10223198 37.8866539 15.84231567
v -32.32763672 37.8866539 15.84231567
v -27.10223198 2.89535308 15.84231567
v -32.32763672 2.89535308 15.84231567
v 27.10235405 2.89535308 21.06768799
v 32.32769775 37.8866539 21.06768799
v 27.10235405 37.8866539 21.06768799
v 32.32769775 2.89535308 21.06768799
v 32.32769775 37.8866539 15.84231567
v 27.10235405 37.8866539 15.84231567
v 32.32769775 2.89535308 15.84231567
v 27.10235405 2.89535308 15.84231567
v 27.10235405 2.89535308 -15.84231567
v 32.32769775 37.8866539 -15.84231567
v 27.10235405 37.8866539 -15.84231567
v 32.32769775 2.89535308 -15.84231567
v 32.32769775 37.8866539 -21.06768799
v 27.10235405 37.8866539 -21.06768799
v 32.32769775 2.89535308 -21.06768799
v 27.10235405 2.89535308 -21.06768799
v -32.32763672 2.89535308 -15.84231567
v -27.10223198 37.8866539 -15.84231567
v -32.32763672 37.8866539 -15.84231567
v -27.10223198 2.89535308 -15.84231567
v -27.10223198 37.8866539 -21.06768799
v -32.32763672 37.8866539 -21.06768799
v -27.10223198 2.89535308 -21.06768799
v -32.32763672 2.89535308 -21.06768799
v -32.20251465 0 6.30187988
v 32.20257568 3.74310756 6.30187988
v -32.20251465 3.74310756 6.30187988
v 32.20257568 0 6.30187988
v 32.20257568 3.74310756 -6.30187988
v -32.20251465 3.74310756 -6.30187988
v 32.20257568 0 -6.30187988
v -32.20251465 0 -6.30187988
v -32.20251465 0 -8.25903225
v 32.20257568 3.74310756 -8.25903225
v -32.20251465 3.74310756 -8.25903225
v 32.20257568 0 -8.25903225
v 32.20257568 3.74310756 -20.86279297
v -32.20251465 3.74310756 -20.86279297
v 32.20257568 0 -20.86279297
v -32.20251465 0 -20.86279297
v -32.20251465 0 21.1366272
v 32.20257568 3.74310756 21.1366272
v -32.20251465 3.74310756 21.1366272
v 32.20257568 0 21.1366272
v 32.20257568 3.74310756 8.53289795
v -32.20251465 3.74310756 8.53289795
v 32.20257568 0 8.53289795
v -32.20251465 0 8.53289795
v -34.44030762 3.57132101 9.57913208
v -33.01116943 2.89535308 22.01080322
v 33.01123047 2.89535308 22.01080322
v 34.44036865 3.57132101 -9.66586208
v 33.01123047 26.33206558 22.01080322
v -11.80053616 26.67221069 22.01080322
v -33.01116943 26.33206558 22.01080322
vn 0.01376 0.58872 0.80822
vn 0.09426 0.50818 0.85608
vn -0.25634 0.77908 -0.57212
vn 0.15295 0.78368 -0.60204
vn -0.09227 0.40125 0.91131
vn 0.65265 0.70063 0.28839
vn 0.81676 0.54061 -0.20159
vn 0 0 1
vn 0 0 -1
vn 0.99337 0 -0.115
vn -0.99898 0 -0.04519
vn -0.00635 0.99368 0.11204
vn 0.26877 0.96213 -0.04548
vn 0.01459 0.96619 -0.25743
vn -0.12722 0.9914 0.03082
vn -0.99236 0 0.12334
vn 0.99882 0 0.04851
vn 0.06548 0 0.99785
vn -0.00043 3E-05 -1
vn 0.04555 0.00185 -0.99896
vn -0.04641 -0.00179 -0.99892
vn 1 0 0
vn -1 0 0
vn -0.02399 0.99961 0.01395
vn 0 1 0
vn -0.01068 0.99978 0.01815
vn 0.01331 0.9999 0.00418
vn -0.0446 0.99514 -0.08782
vn 0.00039 0.9959 -0.09049
vn 0.04538 0.99463 -0.09297
vn 0.05607 -0.95927 -0.27687
vn 0.57589 -0.81753 0
vn 0.03459 -0.88478 0.46472
vn 0.01415 -0.90336 0.42865
vn -0.00631 -0.92008 0.39169
vn -0.39993 -0.91655 0
vn -0.0002 -1E-05 1
vn -0.04305 -0.00149 0.99907
vn 0.04264 0.00148 0.99909
vn -0.06101 0 -0.99814
vn -0.01401 0 -0.9999
vn 0.03301 0 -0.99945
vn 0 -1 0
vn -0.03768 -0.98477 -0.16972
vn -0.03544 0 0.99937
vn -0.99346 0 0.11421
vn -0.25114 0.96756 -0.02739
vn 0.99247 0 -0.1225
vn 0.04136 0.99883 -0.02518
vn 0.99898 0 0.04507
vn -0.99883 0 -0.04838
vn -0.02396 -0.99959 -0.01561
vn -0.00342 -0.99993 0.01148
vn -0.02052 -0.99942 -0.02709
vn 0.02071 -0.99941 0.02725
vn 0.00339 -0.99993 -0.01145
vn 0.02411 -0.99958 0.01581
vn -0.00397 -0.99999 0.00148
vn 0.00458 -0.99997 0.00622
vn 0.00855 -0.99995 0.00474
vt 0.03746 0.30568
vt 0.03746 0.30568
vt 0.03746 0.30568
vt 0.03746 0.30568
vt 0.03746 0.30568
vt 0.03746 0.30568
vt 0.03746 0.30568
vt 0.03746 0.30568
vt 0.03746 0.30568
vt 0.03746 0.30568
vt 0.03746 0.30568
vt 0.03746 0.30568
vt 0.03746 0.30568
vt 0.03746 0.30568
vt 0.03746 0.30568
vt 0.03746 0.30568
vt 0.03746 0.30568
vt 0.03746 0.30568
vt 0.03746 0.30568
vt 0.03746 0.30568
vt 0.03746 0.30568
vt 0.03746 0.30568
vt 0.03746 0.30568
vt 0.03746 0.30568
vt 0.03934 0.27744
vt 0.03464 0.27744
usemtl mat0
f 1/1/1 2/1/1 3/2/1
f 4/3/2 2/1/2 1/1/2
f 5/4/3 6/5/3 7/6/3
f 8/7/4 6/5/4 5/4/4
f 1/1/5 3/2/5 9/7/5
f 10/8/6 11/9/6 12/8/6
f 13/9/7 11/9/7 10/8/7
f 14/8/8 15/10/8 16/11/8
f 14/8/8 17/12/8 15/10/8
f 18/11/9 19/12/9 20/8/9
f 18/11/9 21/10/9 19/12/9
f 22/10/10 19/12/10 21/10/10
f 22/10/10 23/12/10 19/12/10
f 24/13/11 25/14/11 26/2/11
f 24/13/11 27/15/11 25/14/11
f 16/11/12 28/10/12 29/11/12
f 16/11/12 15/10/12 28/10/12
f 30/10/13 21/10/13 31/10/13
f 30/10/13 22/10/13 21/10/13
f 21/10/14 32/11/14 31/10/14
f 21/10/14 18/11/14 32/11/14
f 18/11/15 33/11/15 32/11/15
f 18/11/15 34/11/15 33/11/15
f 35/8/8 36/12/8 37/8/8
f 35/8/8 38/12/8 36/12/8
f 38/12/16 39/16/16 36/12/16
f 38/12/16 40/16/16 39/16/16
f 41/17/9 42/18/9 43/17/9
f 41/17/9 44/18/9 42/18/9
f 45/9/17 35/8/17 37/8/17
f 45/9/17 46/9/17 35/8/17
f 47/7/18 48/12/18 49/10/18
f 47/7/18 50/19/18 48/12/18
f 51/20/19 52/10/20 53/12/20
f 51/20/19 54/21/19 52/10/20
f 55/11/21 54/21/19 51/20/19
f 55/11/21 51/20/19 56/8/21
f 48/12/22 52/10/22 49/10/22
f 48/12/22 53/12/22 52/10/22
f 57/13/23 58/11/23 59/2/23
f 57/13/23 60/8/23 58/11/23
f 49/10/24 52/10/25 61/10/25
f 49/10/24 61/10/25 62/10/24
f 63/7/26 49/10/24 62/10/24
f 63/7/26 47/7/26 49/10/24
f 58/11/27 47/7/26 63/7/26
f 58/11/27 63/7/26 64/11/27
f 55/11/25 58/11/27 64/11/27
f 55/11/25 64/11/27 65/11/25
f 52/10/28 66/21/29 61/10/28
f 52/10/28 54/21/29 66/21/29
f 66/21/29 54/21/29 55/11/30
f 66/21/29 55/11/30 65/11/30
f 67/20/31 53/12/31 68/12/31
f 67/20/31 51/20/31 53/12/31
f 53/12/32 69/17/32 68/12/32
f 53/12/32 70/17/32 69/17/32
f 70/17/33 71/22/34 69/17/33
f 70/17/33 72/22/34 71/22/34
f 71/22/34 72/22/34 73/18/35
f 71/22/34 73/18/35 74/18/35
f 73/18/36 75/8/36 74/18/36
f 73/18/36 56/8/36 75/8/36
f 76/20/37 68/12/38 77/12/38
f 76/20/37 67/20/37 68/12/38
f 75/8/39 67/20/37 76/20/37
f 75/8/39 76/20/37 78/8/39
f 68/12/23 79/17/23 77/12/23
f 68/12/23 69/17/23 79/17/23
f 69/17/40 80/22/41 79/17/40
f 69/17/40 71/22/41 80/22/41
f 80/22/41 71/22/41 74/18/42
f 80/22/41 74/18/42 81/18/42
f 74/18/22 78/8/22 81/18/22
f 74/18/22 75/8/22 78/8/22
f 9/7/8 82/12/8 83/10/8
f 9/7/8 3/2/8 82/12/8
f 82/12/8 3/2/8 2/1/8
f 82/12/8 2/1/8 84/23/8
f 4/3/8 84/23/8 2/1/8
f 84/23/8 4/3/8 85/8/8
f 85/8/8 4/3/8 86/11/8
f 87/12/9 7/6/9 88/10/9
f 87/12/9 5/4/9 7/6/9
f 89/8/9 5/4/9 87/12/9
f 90/11/9 5/4/9 89/8/9
f 90/11/9 8/7/9 5/4/9
f 82/12/22 88/10/22 83/10/22
f 82/12/22 87/12/22 88/10/22
f 91/13/23 86/11/23 92/2/23
f 91/13/23 85/8/23 86/11/23
f 83/10/25 1/1/25 9/7/25
f 93/10/25 1/1/25 83/10/25
f 83/10/25 94/10/25 93/10/25
f 1/1/25 93/10/25 95/1/25
f 83/10/25 88/10/25 94/10/25
f 95/1/25 86/11/25 1/1/25
f 1/1/25 86/11/25 4/3/25
f 86/11/25 95/1/25 96/11/25
f 88/10/25 6/5/25 94/10/25
f 88/10/25 7/6/25 6/5/25
f 94/10/25 6/5/25 97/11/25
f 97/11/25 6/5/25 8/7/25
f 97/11/25 8/7/25 90/11/25
f 90/11/25 98/11/25 97/11/25
f 90/11/25 99/11/25 98/11/25
f 90/11/25 86/11/25 99/11/25
f 99/11/25 86/11/25 96/11/25
f 99/11/25 96/11/25 100/11/25
f 101/8/8 102/12/8 103/8/8
f 101/8/8 104/12/8 102/12/8
f 104/12/23 105/17/23 102/12/23
f 104/12/23 106/17/23 105/17/23
f 106/17/9 107/24/9 105/17/9
f 106/17/9 108/24/9 107/24/9
f 107/24/9 108/24/9 109/18/9
f 107/24/9 109/18/9 110/18/9
f 109/18/22 13/9/22 110/18/22
f 109/18/22 11/9/22 13/9/22
f 109/18/22 101/8/22 11/9/22
f 11/9/22 101/8/22 103/8/22
f 11/9/22 103/8/22 12/8/22
f 111/25/8 112/25/8 113/25/8
f 111/25/8 114/25/8 112/25/8
f 113/25/25 115/25/25 116/25/25
f 113/25/25 112/25/25 115/25/25
f 116/25/9 117/25/9 118/25/9
f 116/25/9 115/25/9 117/25/9
f 118/25/43 114/25/43 111/25/43
f 118/25/43 117/25/43 114/25/43
f 114/25/22 115/25/22 112/25/22
f 114/25/22 117/25/22 115/25/22
f 118/25/23 113/25/23 116/25/23
f 118/25/23 111/25/23 113/25/23
f 119/25/8 120/25/8 121/25/8
f 119/25/8 122/25/8 120/25/8
f 121/25/25 123/25/25 124/25/25
f 121/25/25 120/25/25 123/25/25
f 124/25/9 125/25/9 126/25/9
f 124/25/9 123/25/9 125/25/9
f 126/25/43 122/25/43 119/25/43
f 126/25/43 125/25/43 122/25/43
f 122/25/22 123/25/22 120/25/22
f 122/25/22 125/25/22 123/25/22
f 126/25/23 121/25/23 124/25/23
f 126/25/23 119/25/23 121/25/23
f 127/25/8 128/25/8 129/25/8
f 127/25/8 130/25/8 128/25/8
f 129/25/25 131/25/25 132/25/25
f 129/25/25 128/25/25 131/25/25
f 132/25/9 133/25/9 134/25/9
f 132/25/9 131/25/9 133/25/9
f 134/25/43 130/25/43 127/25/43
f 134/25/43 133/25/43 130/25/43
f 130/25/22 131/25/22 128/25/22
f 130/25/22 133/25/22 131/25/22
f 134/25/23 129/25/23 132/25/23
f 134/25/23 127/25/23 129/25/23
f 135/25/8 136/25/8 137/25/8
f 135/25/8 138/25/8 136/25/8
f 137/25/25 139/25/25 140/25/25
f 137/25/25 136/25/25 139/25/25
f 140/25/9 141/25/9 142/25/9
f 140/25/9 139/25/9 141/25/9
f 142/25/43 138/25/43 135/25/43
f 142/25/43 141/25/43 138/25/43
f 138/25/22 139/25/22 136/25/22
f 138/25/22 141/25/22 139/25/22
f 142/25/23 137/25/23 140/25/23
f 142/25/23 135/25/23 137/25/23
f 143/26/8 144/26/8 145/26/8
f 143/26/8 146/26/8 144/26/8
f 145/26/25 147/26/25 148/26/25
f 145/26/25 144/26/25 147/26/25
f 148/26/9 149/26/9 150/26/9
f 148/26/9 147/26/9 149/26/9
f 150/26/43 146/26/43 143/26/43
f 150/26/43 149/26/43 146/26/43
f 146/26/22 147/26/22 144/26/22
f 146/26/22 149/26/22 147/26/22
f 150/26/23 145/26/23 148/26/23
f 150/26/23 143/26/23 145/26/23
f 151/26/8 152/26/8 153/26/8
f 151/26/8 154/26/8 152/26/8
f 153/26/25 155/26/25 156/26/25
f 153/26/25 152/26/25 155/26/25
f 156/26/9 157/26/9 158/26/9
f 156/26/9 155/26/9 157/26/9
f 158/26/43 154/26/43 151/26/43
f 158/26/43 157/26/43 154/26/43
f 154/26/22 155/26/22 152/26/22
f 154/26/22 157/26/22 155/26/22
f 158/26/23 153/26/23 156/26/23
f 158/26/23 151/26/23 153/26/23
f 159/26/8 160/26/8 161/26/8
f 159/26/8 162/26/8 160/26/8
f 161/26/25 163/26/25 164/26/25
f 161/26/25 160/26/25 163/26/25
f 164/26/9 165/26/9 166/26/9
f 164/26/9 163/26/9 165/26/9
f 166/26/43 162/26/43 159/26/43
f 166/26/43 165/26/43 162/26/43
f 162/26/22 163/26/22 160/26/22
f 162/26/22 165/26/22 163/26/22
f 166/26/23 161/26/23 164/26/23
f 166/26/23 159/26/23 161/26/23
f 56/8/44 67/20/44 75/8/44
f 56/8/44 51/20/44 67/20/44
f 60/8/45 47/7/45 58/11/45
f 60/8/45 50/19/45 47/7/45
f 25/14/46 14/8/46 16/11/46
f 25/14/46 27/15/46 14/8/46
f 33/11/47 16/11/47 29/11/47
f 33/11/47 34/11/47 16/11/47
f 44/18/48 45/9/48 42/18/48
f 44/18/48 46/9/48 45/9/48
f 15/10/49 30/10/49 28/10/49
f 15/10/49 22/10/49 30/10/49
f 17/12/50 22/10/50 15/10/50
f 17/12/50 23/12/50 22/10/50
f 39/16/51 41/17/51 43/17/51
f 39/16/51 40/16/51 41/17/51
f 46/9/52 167/9/52 20/8/53
f 168/18/54 167/9/52 46/9/52
f 46/9/52 20/8/53 35/8/53
f 168/18/54 46/9/52 44/18/54
f 20/8/53 38/12/55 35/8/53
f 20/8/53 19/12/55 38/12/55
f 169/17/56 168/18/54 44/18/54
f 169/17/56 44/18/54 41/17/56
f 19/12/55 40/16/57 38/12/55
f 40/16/57 169/17/56 41/17/56
f 19/12/55 170/16/57 40/16/57
f 40/16/57 170/16/57 169/17/56
f 171/17/58 172/24/59 108/24/59
f 108/24/59 172/24/59 173/18/60
f 171/17/58 108/24/59 106/17/58
f 108/24/59 173/18/60 109/18/60
f 87/12/43 171/17/58 106/17/58
f 173/18/60 101/8/43 109/18/60
f 87/12/43 106/17/58 104/12/43
f 173/18/60 89/8/43 101/8/43
f 89/8/43 87/12/43 104/12/43
f 89/8/43 104/12/43 101/8/43
# Vertices: 173, normals: 60, texture coordinates: 26, faces: 244

