# File generated by ImageToStl.com - Free Image and 3D model conversion tools

mtllib SM_Env_Road_Cross_01.mtl

# SM_Env_Road_Cross_01_0
o obj1
v 499.99987793 0 71.01416016
v 499.99987793 0 45
v 465.7512207 0 32.76269531
v 439.73754883 0 58.77685547
v 499.99987793 0 955.00048828
v 499.99987793 0 928.98583984
v 438.72851562 0 940.35595703
v 464.74316406 0 966.37060547
v 465.7512207 0 32.76269531
v 499.99987793 0 45
v 499.99987793 0 0
v 455.00036621 0 0
v 499.99987793 0 1000.00048828
v 499.99987793 0 955.00048828
v 464.74316406 0 966.37060547
v 455.00036621 0 1000.00048828
v 438.72851562 0 940.35595703
v 499.99987793 0 928.98583984
v 499.99987793 0 500.00048828
v 0.00012207 0 500.00048828
v 428.98547363 0 0
v 455.00036621 0 0
v 428.98547363 0 1000.00048828
v 455.00036621 0 1000.00048828
v -499.99963379 0 71.01416016
v -439.2052002 0 58.14941406
v -465.21887207 0 32.13525391
v -499.99963379 0 45
v -499.99963379 0 955.00048828
v -464.62194824 0 964.22753906
v -438.6072998 0 938.21289062
v -499.99963379 0 928.98583984
v -465.21887207 0 32.13525391
v -455.00012207 0 0
v -499.99963379 0 0
v -499.99963379 0 45
v -499.99963379 0 1000.00048828
v -455.00012207 0 1000.00048828
v -464.62194824 0 964.22753906
v -499.99963379 0 955.00048828
v -499.99963379 0 928.98583984
v -438.6072998 0 938.21289062
v 0.00012207 0 500.00048828
v -499.99963379 0 500.00048828
v -428.98547363 0 0
v -455.00012207 0 0
v -455.00012207 0 1000.00048828
v -428.98547363 0 1000.00048828
v 0 0 1000.00048828
v 428.98547363 0 1000.00048828
v 439.73754883 0 58.77685547
v 428.98547363 0 0
v 0 0 0
v 0.00012207 0 500.00048828
v 0 0 0
v -428.98547363 0 0
v -439.2052002 0 58.14941406
v 0.00012207 0 500.00048828
v -428.98547363 0 1000.00048828
v 0 0 1000.00048828
v 499.99987793 0 500.00048828
v 499.99987793 0 71.01416016
v -499.99963379 0 500.00048828
v -499.99963379 0 71.01416016
vn 0 1 0
vt 0.01123 0.00776
vt 0.8965 0.89926
vt 0.98354 0.89926
vt 0.98354 0.98487
vt 0.8965 0.98487
vt 0.98354 0.03371
vt 0.98354 0.11931
vt 0.8965 0.11931
vt 0.8965 0.03371
vt 0.84619 0.1688
vt 0.98354 0.1688
vt 0.98354 0.98487
vt 0.01646 0.98487
vt 0.1035 0.89926
vt 0.1035 0.98487
vt 0.01646 0.98487
vt 0.01646 0.89926
vt 0.01646 0.03371
vt 0.1035 0.03371
vt 0.1035 0.11931
vt 0.01646 0.11931
vt 0.01646 0.1688
vt 0.15381 0.1688
vt 0.98354 0.98487
vt 0.01646 0.98487
vt 0.01646 0.03371
vt 0.84619 0.03371
vt 0.84619 0.84978
vt 0.84619 0.98487
vt 0.01646 0.98487
vt 0.01646 0.03371
vt 0.98354 0.98487
vt 0.15381 0.98487
vt 0.15381 0.84978
vt 0.98354 0.03371
vt 0.15381 0.03371
vt 0.98354 0.03371
vt 0.98354 0.84978
vt 0.01646 0.84978
usemtl mat0
f 1/1/1 2/1/1 3/1/1
f 3/1/1 4/1/1 1/1/1
f 5/1/1 6/1/1 7/1/1
f 7/1/1 8/1/1 5/1/1
f 9/2/1 10/3/1 11/4/1
f 11/4/1 12/5/1 9/2/1
f 13/6/1 14/7/1 15/8/1
f 15/8/1 16/9/1 13/6/1
f 17/10/1 18/11/1 19/12/1
f 19/12/1 20/13/1 17/10/1
f 21/1/1 4/1/1 3/1/1
f 3/1/1 22/1/1 21/1/1
f 8/1/1 7/1/1 23/1/1
f 23/1/1 24/1/1 8/1/1
f 25/1/1 26/1/1 27/1/1
f 27/1/1 28/1/1 25/1/1
f 29/1/1 30/1/1 31/1/1
f 31/1/1 32/1/1 29/1/1
f 33/14/1 34/15/1 35/16/1
f 35/16/1 36/17/1 33/14/1
f 37/18/1 38/19/1 39/20/1
f 39/20/1 40/21/1 37/18/1
f 41/22/1 42/23/1 43/24/1
f 43/24/1 44/25/1 41/22/1
f 45/1/1 46/1/1 27/1/1
f 27/1/1 26/1/1 45/1/1
f 30/1/1 47/1/1 48/1/1
f 48/1/1 31/1/1 30/1/1
f 20/13/1 49/26/1 50/27/1
f 50/27/1 17/10/1 20/13/1
f 51/28/1 52/29/1 53/30/1
f 53/30/1 54/31/1 51/28/1
f 55/32/1 56/33/1 57/34/1
f 57/34/1 58/35/1 55/32/1
f 42/23/1 59/36/1 60/37/1
f 60/37/1 43/24/1 42/23/1
f 61/6/1 62/38/1 51/28/1
f 51/28/1 54/31/1 61/6/1
f 63/18/1 58/35/1 57/34/1
f 57/34/1 64/39/1 63/18/1
# Vertices: 64, normals: 1, texture coordinates: 39, faces: 40

