# File generated by ImageToStl.com - Free Image and 3D model conversion tools

mtllib SM_Prop_Range_Wall_Window_01.mtl

# SM_Prop_Range_Wall_Window_01_0
o obj1
v 40.3104248 207.06723022 4.91046143
v 67.82067871 207.06723022 4.91046143
v 67.82067871 207.06723022 -4.91040039
v 21.6661377 207.06723022 2.13470459
v 74.98083496 0 -8.21710205
v 74.98083496 1.614E-05 8.21722412
v -74.98095703 1.614E-05 8.21722412
v -74.98095703 0 -8.21710205
v 74.98083496 211.56948853 -3.50006104
v 74.98083496 211.56948853 8.21722412
v 74.98095703 208.21875 -8.21710205
v -74.98095703 211.56948853 8.21722412
v -74.98095703 211.56948853 -8.21710205
v -67.69836426 211.56950378 -8.21710205
v -67.69836426 211.56950378 8.21722412
v -67.69836426 176.79286194 8.21722412
v -71.52685547 156.80549622 8.21722412
v -67.69836426 19.27297401 -8.21710205
v 67.82067871 211.56948853 8.21722412
v 67.82067871 19.27297211 8.21722412
v 69.54455566 211.56948853 -8.21710205
v 67.82067871 211.56948853 -8.21710205
v 67.82067871 19.27292252 -8.21710205
v -67.69836426 19.27292442 8.21722412
v 67.82067871 19.27297211 4.91046143
v -67.69836426 19.27292442 4.91046143
v 67.82067871 207.06723022 4.91046143
v 67.82067871 57.08177567 4.91040039
v -67.69836426 207.06724548 4.91046143
v -67.69836426 207.06724548 -4.91046143
v 67.82067871 207.06723022 -4.91040039
v -67.69836426 19.27297401 -4.91046143
v 67.82067871 19.27292252 -4.91040039
v -67.69836426 56.83182907 -4.91040039
v 67.82067871 56.83177948 -4.91040039
v -47.80712891 100.63490295 4.91046143
v -67.69836426 155.88653564 4.91046143
v -67.69836426 56.83178711 4.91046143
v -14.68066406 49.83029556 4.91046143
v 0.72460938 47.96014786 4.91046143
v 47.92932129 100.63493347 4.91046143
v 58.84899902 55.96990204 4.91046143
v 67.82067871 57.08177567 4.91040039
v 47.92932129 189.7097168 4.91046143
v 21.04626465 204.38244629 4.91046143
v -47.80712891 189.70973206 4.91046143
v 47.92932129 100.63490295 -4.91040039
v 16.07226562 44.28271103 -4.91040039
v -47.80712891 100.63493347 -4.91046143
v -58.87280273 55.37270355 -4.91052246
v -67.69836426 56.83182907 -4.91040039
v -29.12768555 203.51759338 -4.91046143
v -47.80712891 189.70973206 -4.91046143
v -67.69836426 207.06724548 -4.91046143
v -49.63574219 207.06724548 -4.91046143
v 47.92932129 189.7097168 -4.91040039
v 67.82067871 56.83177948 -4.91040039
v -40.71142578 106.99641418 8.21722412
v -40.71142578 183.34825134 8.21722412
v -47.80712891 189.70973206 8.21722412
v -47.80712891 100.63490295 8.21722412
v -31.3861084 106.99641418 8.21722412
v -11.27062988 104.22171783 8.21722412
v 40.83374023 141.12759399 8.21722412
v 40.83374023 106.99641418 8.21722412
v 47.92932129 100.63493347 8.21722412
v 44.17834473 156.91186523 8.21722412
v -38.23352051 189.70973206 8.21722412
v -27.14331055 187.82620239 8.21722412
v 32.42663574 106.99640656 -8.21710205
v 40.83374023 106.99640656 -8.21710205
v 47.92932129 100.63490295 -8.21710205
v 22.64660645 104.73842621 -8.21710205
v -40.71142578 106.99642181 -8.21722412
v -45.5012207 143.17730713 -8.21722412
v -40.71142578 183.34825134 -8.21722412
v 40.83374023 183.34825134 -8.21710205
v -47.80712891 189.70973206 -8.21722412
v 47.92932129 189.7097168 -8.21710205
v 0.3170166 106.99641418 4.22003174
v 14.47387695 106.99642181 8.21722412
v 23.13562012 106.99641418 -5.22070312
v 40.83374023 183.34825134 8.21722412
v 40.83374023 173.02433777 8.21722412
v 40.83374023 155.23640442 4.13293457
v -47.80712891 189.70973206 4.91046143
v -47.80712891 100.63490295 4.91046143
v 47.92932129 100.63493347 4.91046143
v 47.92932129 189.7097168 8.21722412
v 47.92932129 189.7097168 4.91046143
v -25.125 189.70973206 6.34643555
v -47.80712891 100.63493347 -8.21722412
v 47.92932129 100.63490295 -4.91040039
v -47.80712891 100.63493347 -4.91046143
v -47.80712891 189.70973206 -4.91046143
v -47.80712891 143.41044617 -6.29119873
v 47.92932129 189.7097168 -4.91040039
v -67.69836426 56.83178711 4.91046143
v -58.52050781 56.8130188 4.91052246
v -67.69836426 56.83178711 4.91046143
v -67.69836426 19.27292442 4.91046143
v -43.41723633 42.05179977 4.91046143
v 67.82067871 19.27297211 4.91046143
v 67.82067871 57.08177567 4.91040039
v 58.84899902 55.96990204 4.91046143
v 58.36523438 57.94850159 -4.91040039
v 67.82067871 56.83177948 -4.91040039
v 67.82067871 19.27292252 -4.91040039
v 42.71411133 44.16285324 -4.91040039
v -67.69836426 19.27297401 -4.91046143
v -67.69836426 56.83182907 -4.91040039
v -58.87280273 55.37270355 -4.91052246
v -58.52050781 56.8130188 4.91052246
v 58.36523438 57.94850159 -4.91040039
v 42.71411133 44.16285324 -4.91040039
v -6.20751953 31.75232887 -4.91046143
v -39.41699219 34.32803345 -4.91046143
v -43.41723633 42.05179977 4.91046143
v 18.97766113 33.04691696 4.91046143
v 40.2800293 38.09493256 4.91046143
v -14.68066406 49.83029556 4.91046143
v 18.97766113 33.04691696 4.91046143
v 0.72460938 47.96014786 4.91046143
v 40.2800293 38.09493256 4.91046143
v -39.41699219 34.32803345 -4.91046143
v 16.07226562 44.28271103 -4.91040039
v -6.20751953 31.75232887 -4.91046143
v -26.28417969 207.06724548 -0.44793701
v 6.7479248 207.06723022 4.91046143
v -67.69836426 207.06724548 4.91046143
v 0.19262695 207.06724548 -4.91040039
v -17.40209961 106.99641418 3.97753906
v 8.39672852 106.99641418 -8.21716309
v -11.96447754 189.70973206 8.21722412
v -47.80712891 152.41171265 -8.21722412
v -47.80712891 134.41156006 -8.21728516
v -67.69836426 155.88653564 4.91046143
v -67.69836426 136.2882843 8.21728516
vn 0 1 -0
vn 0 -1 0
vn 1 -0 0
vn 1 -0 0
vn 1 -0 0
vn -1 0 0
vn -0 1 0
vn 0 0 1
vn 0 0 1
vn 0 0 -1
vn 0 0 1
vn 0 1 0
vn 0 1 0
vn -0 1 0
vn 1 0 0
vn 1 0 0
vn 1 0 0
vn -1 0 0
vn -1 0 0
vn 0 1 0
vn 0 1 0
vn 1 0 0
vn 1E-05 0 1
vn 1E-05 0 1
vn 1E-05 0 1
vn -0 0 1
vn 0 -0 -1
vn 0 -0 -1
vn -1E-05 0 -1
vn -1E-05 0 -1
vn -1E-05 0 -1
vn 0 0 -1
vn 0 0 -1
vn -0 0 1
vn -0 0 1
vn 0 0 1
vn 0 0 -1
vn 0 0 -1
vn 0 0 -1
vn 0 0 -1
vn 0 0 -1
vn 0 0 -1
vn 0 0 -1
vn 0 0 -1
vn 0 0 -1
vn 0 1 -0
vn 0 1 -0
vn 0 1 -0
vn 0 -1 0
vn 0 -1 0
vn 0 1 0
vn -0 -1 0
vn -0 -1 0
vn 0 1 0
vn -1E-05 0 1
vn -1E-05 0 1
vn 0 -0 1
vn 0 -0 1
vn 1E-05 0 1
vn 1E-05 0 1
vn 1E-05 0 1
vn -1E-05 0 -1
vn -1E-05 0 -1
vn -1E-05 0 1
vn -1E-05 0 1
vn -1E-05 0 1
vn 0 -0 1
vn 0 -0 1
vn 0 -0 1
vn -0 0 -1
vn -0 0 -1
vn -0 -0 -1
vn -0 -0 -1
vn -0 -0 -1
vn 0 -0 -1
vn 0 -0 -1
vn 0 0 -1
vn 0 0 -1
vn 0 0 -1
vn 0 0 1
vn 0 0 1
vn 0 0 1
vn 0 0 1
vn 0 -0 -1
vn 0 -0 -1
vn 0 0 -1
vn 0 0 -1
vn 0 0 -1
vn 0 -0 -1
vn 0 -0 -1
vn 0 -0 -1
vn 0.12724 0.73515 -0.66585
vn 0.12724 0.73515 -0.66585
vn 0.13103 0.69781 0.7042
vn 0.13103 0.69781 0.7042
vn 0.13103 0.69781 0.7042
vn -0.10122 0.7263 0.67989
vn -0.10122 0.7263 0.67989
vn -0.10122 0.7263 0.67989
vn 0 1 0
vn 0 1 0
vn 0 1 0
vn 0 1 1E-05
vn 0 1 1E-05
vn 0 1 1E-05
vn 0 1 -0
vn 0 1 -0
vn 0 1 -0
vn -0.09785 0.80829 -0.58059
vn -0.09785 0.80829 -0.58059
vn -0.09785 0.80829 -0.58059
vn 0 -0 -1
vn 0 -0 -1
vn 0 -0 -1
vn 0 0 -1
vn 0 0 -1
vn 0.44899 0.72846 -0.51745
vn 0.44899 0.72846 -0.51745
vn 0.44899 0.72846 -0.51745
vn -0.0076 0.83164 0.55526
vn -0.0076 0.83164 0.55526
vn 0.12458 0.90313 0.4109
vn 0.12458 0.90313 0.4109
vn -0.10019 0.92955 0.35482
vn -0.10019 0.92955 0.35482
vn -0.10019 0.92955 0.35482
vn -0.18451 0.79916 -0.57211
vn -0.18451 0.79916 -0.57211
vn 0.12402 0.78263 -0.61001
vn 0.12402 0.78263 -0.61001
vn 0.12402 0.78263 -0.61001
vn 0 1 -0
vn 0 1 -0
vn 0 1 -0
vn 0 1 -0
vn 0 1 -0
vn 0 1 0
vn 0 1 0
vn 0 1 0
vn 0 1 0
vn 0 -1E-05 -1
vn 0 -1E-05 -1
vn 0 1E-05 -1
vn 0 1E-05 -1
vn 0 1E-05 -1
vn -0.79539 0.16854 0.5822
vn -0.79539 0.16854 0.5822
vn -0.73316 -0.15219 0.66281
vn -0.73316 -0.15219 0.66281
vn -0.73316 -0.15219 0.66281
vn -0.09308 0.75008 0.65477
vn -0.09308 0.75008 0.65477
vn 0 1 0
vn 0 1 0
vn 0 1 0
vn 0 1 0
vn 0.10862 0.63953 0.76106
vn 0.10862 0.63953 0.76106
vn 0.10862 0.63953 0.76106
vn -0.64226 -0.16038 -0.74952
vn -0.64226 -0.16038 -0.74952
vn -0.62259 0.16378 -0.76522
vn -0.62259 0.16378 -0.76522
vn -0.62259 0.16378 -0.76522
vn -1 -0 0
vn -1 -0 0
vn 1E-05 -0 -1
vn 1E-05 -0 -1
vn -0 0 -1
vn -0 0 -1
vn -0 0 -1
vn 0.6655 0.12418 0.73599
vn 0.6655 0.12418 0.73599
vn 0.63205 -0.12107 0.76541
vn 0.63205 -0.12107 0.76541
vn -1E-05 -0 1
vn -1E-05 -0 1
vn -1E-05 -0 1
vn -1E-05 -0 1
vn 0 0 1
vn 0 0 1
vn 0 0 1
vt 0.03704 0.35519
vt 0.03703 0.35519
vt 0.03704 0.35519
vt 0.03704 0.27888
vt 0.03705 0.35518
vt 0.03705 0.35519
vt 0.03705 0.35519
vt 0.03704 0.35518
vt 0.03704 0.35518
vt 0.03703 0.35518
vt 0.03703 0.35519
vt 0.03704 0.35519
vt 0.03705 0.35519
vt 0.03704 0.35518
vt 0.03704 0.35519
vt 0.03705 0.35519
vt 0.03632 0.27744
vt 0.03632 0.27745
vt 0.03632 0.27745
vt 0.03632 0.27745
vt 0.03632 0.27745
vt 0.03632 0.27745
vt 0.03632 0.27745
vt 0.03632 0.27745
vt 0.03625 0.32783
vt 0.03704 0.35518
vt 0.03704 0.35518
vt 0.03705 0.35518
vt 0.03705 0.35518
vt 0.03704 0.35518
vt 0.03704 0.35518
vt 0.03704 0.35519
vt 0.03704 0.35519
vt 0.03704 0.35519
vt 0.03632 0.27745
vt 0.03632 0.27745
usemtl mat0
f 1/1/1 2/2/1 3/2/1
f 3/2/1 4/3/1 1/1/1
f 5/4/2 6/4/2 7/4/2
f 7/4/2 8/4/2 5/4/2
f 9/4/3 10/4/4 6/4/5
f 6/4/5 5/4/4 11/4/5
f 11/4/5 9/4/3 6/4/5
f 12/4/6 13/4/6 8/4/6
f 8/4/6 7/4/6 12/4/6
f 14/4/7 13/4/7 12/4/7
f 12/4/7 15/4/7 14/4/7
f 16/4/8 15/4/8 12/4/8
f 12/4/8 17/4/9 16/4/8
f 18/4/10 8/4/10 13/4/10
f 13/4/10 14/4/10 18/4/10
f 6/4/11 10/4/11 19/4/11
f 19/4/11 20/4/11 6/4/11
f 9/4/12 21/4/13 22/4/12
f 22/4/12 19/4/12 10/4/12
f 10/4/12 9/4/12 22/4/12
f 21/4/10 11/4/10 5/4/10
f 5/4/10 23/4/10 22/4/10
f 22/4/10 21/4/10 5/4/10
f 7/4/11 6/4/11 20/4/11
f 20/4/11 24/4/11 7/4/11
f 23/4/10 5/4/10 8/4/10
f 8/4/10 18/4/10 23/4/10
f 25/4/14 26/4/14 24/4/14
f 24/4/14 20/4/14 25/4/14
f 27/4/6 28/4/6 20/4/6
f 20/4/6 19/4/6 27/4/6
f 29/4/15 30/4/16 14/4/16
f 14/4/16 15/4/17 29/4/15
f 31/4/18 27/4/18 19/4/19
f 19/4/19 22/4/18 31/4/18
f 32/4/20 33/4/20 23/4/21
f 23/4/21 18/4/21 32/4/20
f 30/4/22 34/4/22 18/4/22
f 18/4/22 14/4/22 30/4/22
f 35/4/6 31/4/6 22/4/6
f 22/4/6 23/4/6 35/4/6
f 36/5/11 37/6/11 38/7/11
f 36/5/11 39/8/11 40/9/11
f 40/9/11 41/10/11 36/5/11
f 42/10/23 43/11/24 41/10/25
f 44/2/26 45/12/26 46/13/26
f 47/10/27 48/14/28 49/5/27
f 50/5/29 51/7/30 49/5/31
f 52/15/10 53/13/10 54/13/10
f 54/13/10 55/16/10 52/15/10
f 47/10/32 56/2/33 3/2/32
f 3/2/32 57/11/33 47/10/32
f 58/17/34 59/18/34 60/18/34
f 60/18/34 61/17/35 58/17/34
f 62/17/11 58/17/11 61/17/11
f 61/17/11 63/17/11 62/17/11
f 64/19/36 65/17/36 66/17/36
f 66/17/36 67/20/36 64/19/36
f 68/18/11 60/18/11 59/18/11
f 59/18/11 69/18/11 68/18/11
f 70/17/10 71/17/10 72/17/10
f 72/17/10 73/17/10 70/17/10
f 74/17/37 75/21/37 76/18/38
f 77/18/39 76/18/40 78/18/41
f 78/18/41 79/18/42 77/18/39
f 71/17/43 77/18/44 79/18/45
f 79/18/45 72/17/44 71/17/43
f 80/17/46 81/17/47 65/17/48
f 65/17/48 82/17/47 80/17/46
f 59/18/22 58/17/22 74/17/22
f 74/17/22 76/18/22 59/18/22
f 83/18/49 59/18/49 76/18/49
f 76/18/49 77/18/49 83/18/49
f 84/22/6 83/18/6 77/18/6
f 77/18/6 85/23/6 84/22/6
f 61/17/6 60/18/6 86/18/6
f 86/18/6 87/17/6 61/17/6
f 66/17/50 61/17/50 87/17/50
f 87/17/50 88/17/50 66/17/50
f 89/18/22 66/17/22 88/17/22
f 88/17/22 90/18/22 89/18/22
f 90/18/51 86/18/51 91/18/51
f 92/17/52 72/17/53 93/17/53
f 93/17/53 94/17/53 92/17/52
f 94/17/6 95/18/6 96/24/6
f 79/18/54 78/18/51 95/18/54
f 95/18/54 97/18/54 79/18/54
f 72/17/22 79/18/22 97/18/22
f 97/18/22 93/17/22 72/17/22
f 98/4/22 24/4/22 26/4/22
f 99/25/55 100/25/56 101/25/56
f 101/25/57 102/25/58 99/25/57
f 103/25/59 104/25/60 105/25/61
f 20/4/6 28/4/6 25/4/6
f 35/4/6 23/4/6 33/4/6
f 106/25/10 107/25/10 108/25/10
f 108/25/10 109/25/10 106/25/10
f 110/25/62 111/25/63 112/25/63
f 18/4/22 34/4/22 32/4/22
f 36/5/64 38/7/65 113/5/66
f 2/2/67 44/2/68 41/10/69
f 41/10/69 43/11/67 2/2/67
f 47/10/70 57/11/71 114/10/70
f 54/13/72 53/13/73 49/5/72
f 49/5/72 51/7/74 54/13/72
f 48/14/10 47/10/10 114/10/10
f 114/10/10 115/26/10 48/14/10
f 116/27/75 117/28/75 50/5/75
f 50/5/75 48/14/76 116/27/75
f 49/5/77 48/14/78 50/5/79
f 113/5/80 118/29/81 39/8/82
f 39/8/82 36/5/83 113/5/80
f 41/10/11 40/9/11 42/10/11
f 119/30/11 120/31/11 42/10/11
f 42/10/11 40/9/11 119/30/11
f 121/25/11 102/25/11 122/25/11
f 122/25/11 123/25/11 121/25/11
f 122/25/11 103/25/11 124/25/11
f 101/25/11 103/25/11 122/25/11
f 124/25/11 103/25/11 105/25/11
f 125/25/84 110/25/85 112/25/85
f 126/25/86 109/25/87 108/25/87
f 108/25/87 127/25/88 126/25/86
f 125/25/89 127/25/90 108/25/91
f 108/25/91 110/25/89 125/25/89
f 122/25/11 102/25/11 101/25/11
f 55/16/92 128/32/93 52/15/92
f 129/33/94 45/12/95 4/3/96
f 45/12/11 44/2/11 2/2/11
f 2/2/11 1/1/11 45/12/11
f 129/33/11 130/13/11 46/13/11
f 46/13/11 45/12/11 129/33/11
f 4/3/97 45/12/98 1/1/99
f 129/33/100 4/3/101 128/32/100
f 128/32/100 130/13/102 129/33/100
f 3/2/103 131/34/104 128/32/105
f 128/32/105 4/3/104 3/2/103
f 128/32/106 55/16/107 54/13/108
f 54/13/108 130/13/108 128/32/106
f 52/15/109 128/32/110 131/34/111
f 53/13/112 52/15/113 56/2/114
f 131/34/115 3/2/115 56/2/116
f 56/2/116 52/15/115 131/34/115
f 21/4/117 9/4/118 11/4/119
f 63/17/120 80/17/120 132/17/121
f 63/17/122 132/17/122 62/17/123
f 81/17/124 80/17/125 63/17/126
f 70/17/127 73/17/128 82/17/128
f 82/17/129 73/17/130 133/17/131
f 82/17/132 65/17/132 71/17/132
f 71/17/132 70/17/133 82/17/132
f 133/17/134 132/17/135 80/17/136
f 80/17/136 82/17/135 133/17/134
f 58/17/137 62/17/138 132/17/137
f 132/17/137 74/17/138 58/17/137
f 132/17/139 133/17/139 74/17/140
f 74/17/141 133/17/141 73/17/142
f 73/17/142 92/17/142 74/17/141
f 72/17/143 92/17/144 73/17/145
f 65/17/11 81/17/11 63/17/11
f 63/17/11 66/17/11 65/17/11
f 61/17/11 66/17/11 63/17/11
f 64/19/146 67/20/147 85/23/146
f 85/23/148 67/20/149 84/22/150
f 65/17/6 64/19/6 85/23/6
f 85/23/6 71/17/6 65/17/6
f 77/18/6 71/17/6 85/23/6
f 83/18/11 84/22/11 67/20/11
f 67/20/11 89/18/11 83/18/11
f 66/17/11 89/18/11 67/20/11
f 91/18/151 69/18/152 134/18/152
f 69/18/11 83/18/11 89/18/11
f 89/18/11 134/18/11 69/18/11
f 83/18/11 69/18/11 59/18/11
f 60/18/153 68/18/153 91/18/153
f 91/18/153 86/18/153 60/18/153
f 134/18/154 89/18/155 90/18/156
f 90/18/156 91/18/155 134/18/154
f 68/18/157 69/18/158 91/18/159
f 75/21/160 96/24/161 135/35/161
f 136/36/162 96/24/163 75/21/164
f 78/18/165 135/35/165 96/24/165
f 96/24/165 95/18/166 78/18/165
f 136/36/6 92/17/6 94/17/6
f 94/17/6 96/24/6 136/36/6
f 75/21/167 74/17/167 92/17/168
f 92/17/168 136/36/168 75/21/167
f 135/35/169 78/18/170 76/18/171
f 76/18/171 75/21/171 135/35/169
f 137/4/172 17/4/173 138/4/173
f 24/4/22 98/4/22 137/4/22
f 137/4/22 138/4/22 24/4/22
f 137/4/22 29/4/22 15/4/22
f 15/4/22 16/4/22 137/4/22
f 16/4/174 17/4/175 137/4/174
f 138/4/176 17/4/177 7/4/178
f 7/4/178 24/4/179 138/4/176
f 7/4/180 17/4/181 12/4/180
f 130/13/182 37/6/182 46/13/182
f 46/13/11 37/6/11 36/5/11
# Vertices: 138, normals: 182, texture coordinates: 36, faces: 200

