# File generated by ImageToStl.com - Free Image and 3D model conversion tools

mtllib SM_Prop_Spotlight_01.mtl

# SM_Prop_Spotlight_01_0
o obj1
v 3.82895851 606.8605957 3.82895851
v -3.82895851 606.8605957 3.82895851
v -3.82895851 408.04699707 3.82895851
v 3.82895851 408.04699707 3.82895851
v 3.82895851 606.8605957 -3.82895851
v -3.82895851 606.8605957 -3.82895851
v 3.82895851 408.04699707 -3.82895851
v -3.82895851 408.04699707 -3.82895851
v 11.35202312 0 11.35202312
v -11.35202312 0 11.35202312
v -11.35202312 0 -11.35202312
v 11.35202312 0 -11.35202312
v -6.93641758 397.93441772 -6.93641758
v -6.93641758 397.93432617 6.93641758
v 6.93641758 397.93432617 6.93641758
v 6.93641758 397.93441772 -6.93641758
v -6.93641758 11.67957401 6.93641758
v -6.93641758 11.67958546 -6.93641758
v -11.35202312 8.84391499 -11.35202312
v -11.35202312 8.84378529 11.35202312
v 6.93641758 11.67957401 6.93641758
v 11.35202312 8.84378529 11.35202312
v 6.93641758 11.67958546 -6.93641758
v 11.35202312 8.84391499 -11.35202312
v -29.16062164 588.77215576 -0.62665176
v -29.16062164 613.7713623 2.17456818
v -35.08661652 613.7713623 2.17456818
v -35.08661652 588.77215576 -0.62665176
v -29.16062164 589.43200684 -6.51579285
v -29.16062164 614.43127441 -3.71456528
v -35.08661652 589.43200684 -6.51579285
v -35.08661652 614.43127441 -3.71456528
v -18.75906754 635.40075684 9.40894699
v -46.30485535 635.40075684 9.40894699
v -46.30485535 616.48852539 7.28978348
v -18.75906754 616.48852539 7.28978348
v -13.10035419 641.57574463 -0.70837784
v -51.96356964 641.57574463 -0.70837784
v -51.96356964 639.94897461 13.80957413
v -13.10035419 639.94897461 13.80957413
v -21.86351204 622.1762085 -18.7889061
v -43.20041275 622.1762085 -18.7889061
v -43.20041275 635.62591553 -17.28185272
v -21.86351204 635.62591553 -17.28185272
v -13.10035419 611.07904053 10.57463455
v -51.96356964 611.07904053 10.57463455
v -51.96356964 612.70581055 -3.9433136
v -13.10035419 612.70581055 -3.9433136
v -16.95589638 614.47131348 10.95474625
v -48.10803604 614.47131348 10.95474625
v -16.95589638 636.55670166 13.4294548
v -48.10803604 636.55670166 13.4294548
v -18.75906754 616.48852539 7.28978348
v -46.30485535 616.48852539 7.28978348
v -18.75906754 635.40075684 9.40894699
v -46.30485535 635.40075684 9.40894699
v -18.75906754 584.99493408 3.76087189
v -46.30485535 584.99493408 3.76087189
v -46.30485535 566.0826416 1.64170456
v -18.75906754 566.0826416 1.64170456
v -13.10035419 591.16992188 -6.35645294
v -51.96356964 591.16992188 -6.35645294
v -51.96356964 589.54309082 8.16150284
v -13.10035419 589.54309082 8.16150284
v -21.86351204 571.77050781 -24.43696976
v -43.20041275 571.77050781 -24.43696976
v -43.20041275 585.2199707 -22.92992783
v -21.86351204 585.2199707 -22.92992783
v -13.10035419 560.6730957 4.92655182
v -51.96356964 560.6730957 4.92655182
v -51.96356964 562.29992676 -9.59140015
v -13.10035419 562.29992676 -9.59140015
v -16.95589638 564.06542969 5.30666733
v -48.10803604 564.06542969 5.30666733
v -16.95589638 586.15087891 7.78139877
v -48.10803604 586.15087891 7.78139877
v -18.75906754 566.0826416 1.64170456
v -46.30485535 566.0826416 1.64170456
v -18.75906754 584.99493408 3.76087189
v -46.30485535 584.99493408 3.76087189
v 35.90330505 588.77215576 -0.62665176
v 35.90330505 613.7713623 2.17456818
v 29.97731781 613.7713623 2.17456818
v 29.97731781 588.77215576 -0.62665176
v 35.90330505 589.43200684 -6.51579285
v 35.90330505 614.43127441 -3.71456528
v 29.97731781 589.43200684 -6.51579285
v 29.97731781 614.43127441 -3.71456528
v 46.30486298 635.40075684 9.40894699
v 18.75907326 635.40075684 9.40894699
v 18.75907326 616.48852539 7.28978348
v 46.30486298 616.48852539 7.28978348
v 51.96356964 641.57574463 -0.70837784
v 13.10035706 641.57574463 -0.70837784
v 13.10035706 639.94897461 13.80957413
v 51.96356964 639.94897461 13.80957413
v 43.20041275 622.1762085 -18.7889061
v 21.86352158 622.1762085 -18.7889061
v 21.86352158 635.62591553 -17.28185272
v 43.20041275 635.62591553 -17.28185272
v 51.96356964 611.07904053 10.57463455
v 13.10035706 611.07904053 10.57463455
v 13.10035706 612.70581055 -3.9433136
v 51.96356964 612.70581055 -3.9433136
v 48.10803604 614.47131348 10.95474625
v 16.95589638 614.47131348 10.95474625
v 48.10803604 636.55670166 13.4294548
v 16.95589638 636.55670166 13.4294548
v 46.30486298 616.48852539 7.28978348
v 18.75907326 616.48852539 7.28978348
v 46.30486298 635.40075684 9.40894699
v 18.75907326 635.40075684 9.40894699
v 46.30486298 584.99493408 3.76087189
v 18.75907326 584.99493408 3.76087189
v 18.75907326 566.0826416 1.64170456
v 46.30486298 566.0826416 1.64170456
v 51.96356964 591.16992188 -6.35645294
v 13.10035706 591.16992188 -6.35645294
v 13.10035706 589.54309082 8.16150284
v 51.96356964 589.54309082 8.16150284
v 43.20041275 571.77050781 -24.43696976
v 21.86352158 571.77050781 -24.43696976
v 21.86352158 585.2199707 -22.92992783
v 43.20041275 585.2199707 -22.92992783
v 51.96356964 560.6730957 4.92655182
v 13.10035706 560.6730957 4.92655182
v 13.10035706 562.29992676 -9.59140015
v 51.96356964 562.29992676 -9.59140015
v 48.10803604 564.06542969 5.30666733
v 16.95589638 564.06542969 5.30666733
v 48.10803604 586.15087891 7.78139877
v 16.95589638 586.15087891 7.78139877
v 46.30486298 566.0826416 1.64170456
v 18.75907326 566.0826416 1.64170456
v 46.30486298 584.99493408 3.76087189
v 18.75907326 584.99493408 3.76087189
v 42.3482933 603.2857666 2.83828354
v -42.3482933 603.2857666 2.83828354
v -42.3482933 597.90148926 2.23495102
v 42.3482933 597.90148926 2.23495102
v 42.3482933 603.88903809 -2.54594803
v -42.3482933 603.88903809 -2.54594803
v 42.3482933 598.50488281 -3.1492691
v -42.3482933 598.50488281 -3.1492691
vn 0 0 1
vn 0 1 0
vn 0 0 -1
vn 0 -1 0
vn 1 0 0
vn -1 0 0
vn -0.95589 0.29373 0
vn -0.95589 0.29373 0
vn -0.95589 0.29373 0
vn 0 0.29373 0.95589
vn 0.95589 0.29373 0
vn 0.95589 0.29373 0
vn 0.95589 0.29373 0
vn 0 0.29373 -0.95589
vn 0 0.29373 -0.95589
vn -0.54037 0.84143 0
vn -0.54037 0.84143 0
vn -0.54037 0.84143 0
vn -0.54037 0.84143 0
vn 0 0.84142 0.54038
vn 0.54037 0.84143 0
vn 0.54037 0.84143 0
vn 0.54037 0.84143 0
vn 0.54037 0.84143 0
vn 0 0.84143 -0.54036
vn 0 -0.11136 0.99378
vn 1 -0 0
vn 1 -0 0
vn 1 -0 0
vn 0 0.11136 -0.99378
vn 0 -0.11136 0.99378
vn 0 0.99378 0.11136
vn 0 0.11135 -0.99378
vn 0 -0.99378 -0.11136
vn 1 -0 0
vn 1 -0 0
vn 0 0.94119 -0.33788
vn 0 0.94119 -0.33788
vn 0.8746 0.05399 -0.48182
vn 0.8746 0.05399 -0.48182
vn 0.8746 0.05399 -0.48182
vn 0 -0.84306 -0.53781
vn 0 -0.84306 -0.53781
vn -0.8746 0.05399 -0.48182
vn -0.8746 0.05399 -0.48182
vn -0.8746 0.05399 -0.48182
vn -0.8746 0.05399 -0.48182
vn 0 -0.11136 0.99378
vn 0 -0.11136 0.99378
vn 0 -0.11136 0.99378
vn -0 -0.11136 0.99378
vn -0 -0.11136 0.99378
vn 0 -0.11136 0.99378
vn 0 -0.11136 0.99378
vn 0 -0.11136 0.99378
vn 0 -0.11136 0.99378
vn 0 -0.11136 0.99378
vn 0 -0.11136 0.99378
vn 0 0.87606 0.4822
vn 0 0.87606 0.4822
vn 0 0.87606 0.4822
vn -0.9063 -0.04706 0.42
vn -0.9063 -0.04706 0.42
vn -0.9063 -0.04706 0.42
vn -0.9063 -0.04706 0.42
vn 0 -0.96107 0.27631
vn 0 -0.96107 0.27631
vn 0.9063 -0.04706 0.42
vn 0.9063 -0.04706 0.42
vn 0.9063 -0.04706 0.42
vn 0.9063 -0.04706 0.42
vn 0 -0.11136 0.99378
vn 0 0.99378 0.11136
vn 0 0.11136 -0.99378
vn 0 -0.99378 -0.11136
vn 1 0 0
vn -1 0 0
vn 0 0.94119 -0.33789
vn 0 0.94119 -0.33789
vn 0.8746 0.05399 -0.48183
vn 0.8746 0.05399 -0.48183
vn 0.8746 0.05399 -0.48183
vn 0.8746 0.05399 -0.48183
vn 0 -0.84306 -0.53782
vn 0 -0.84306 -0.53782
vn -0.8746 0.05399 -0.48183
vn -0.8746 0.05399 -0.48183
vn -0.8746 0.05399 -0.48183
vn -0.8746 0.05399 -0.48183
vn 0 -0.11136 0.99378
vn 0 -0.11136 0.99378
vn -0 -0.11136 0.99378
vn -0 -0.11136 0.99378
vn -0 -0.11136 0.99378
vn 0 -0.11135 0.99378
vn 0 -0.11135 0.99378
vn 0 -0.11135 0.99378
vn 0 -0.11136 0.99378
vn 0 -0.11136 0.99378
vn 0 -0.11136 0.99378
vn 0 -0.11136 0.99378
vn 0 0.87607 0.48219
vn 0 0.87607 0.48219
vn -0.9063 -0.04706 0.42
vn -0.9063 -0.04706 0.42
vn -0.9063 -0.04706 0.42
vn -0.9063 -0.04706 0.42
vn 0 -0.96107 0.27631
vn 0 -0.96107 0.27631
vn 0 -0.96107 0.27631
vn 0.9063 -0.04706 0.42
vn 0.9063 -0.04706 0.42
vn 0.9063 -0.04706 0.42
vn 0 -0.11136 0.99378
vn 0 0.11136 -0.99378
vn 0 -0.11136 0.99378
vn 0 0.99378 0.11136
vn 0 0.11135 -0.99378
vn 0 -0.99378 -0.11136
vn 1 0 0
vn 1 0 0
vn 0 0.94119 -0.33788
vn 0 0.94119 -0.33788
vn 0 -0.84307 -0.53781
vn -0.8746 0.05399 -0.48182
vn -0.8746 0.05399 -0.48182
vn -0.8746 0.05399 -0.48182
vn 0 -0.11135 0.99378
vn 0 -0.11135 0.99378
vn 0 -0.11135 0.99378
vn -0 -0.11136 0.99378
vn -0 -0.11136 0.99378
vn 0 -0.11136 0.99378
vn 0 -0.11136 0.99378
vn 0 -0.11136 0.99378
vn 0 -0.11136 0.99378
vn 0 0.87606 0.4822
vn 0 0.87606 0.4822
vn 0 0.87606 0.4822
vn -0.9063 -0.04706 0.42
vn -0.9063 -0.04706 0.42
vn -0.9063 -0.04706 0.42
vn 0 -0.96107 0.27631
vn 0 -0.96107 0.27631
vn 0.9063 -0.04706 0.42
vn 0.9063 -0.04706 0.42
vn 0.9063 -0.04706 0.42
vn 0 0.11136 -0.99378
vn 0 -0.99378 -0.11136
vn -1 -0 0
vn 0 0.94119 -0.33789
vn 0 0.94119 -0.33789
vn 0.8746 0.05399 -0.48183
vn 0.8746 0.05399 -0.48183
vn 0.8746 0.05399 -0.48183
vn 0.8746 0.05399 -0.48183
vn 0 -0.84306 -0.53782
vn 0 -0.84306 -0.53782
vn 0 -0.11135 0.99378
vn -0 -0.11136 0.99378
vn -0 -0.11136 0.99378
vn -0 -0.11136 0.99378
vn 0 -0.11135 0.99378
vn 0 -0.11135 0.99378
vn 0 -0.11136 0.99378
vn 0 -0.11136 0.99378
vn 0 -0.11136 0.99378
vn 0 0.87607 0.48218
vn 0 0.87607 0.48218
vn -0.9063 -0.04706 0.42
vn -0.9063 -0.04706 0.42
vn -0.9063 -0.04706 0.42
vn 0 -0.96107 0.27632
vn 0 -0.96107 0.27632
vn 0.9063 -0.04706 0.42
vn 0.9063 -0.04706 0.42
vn 0.9063 -0.04706 0.42
vn 0 -0.11136 0.99378
vn 0 0.99378 0.11134
vn 0 0.11136 -0.99378
vn 0 -0.99378 -0.11137
vn 1 -0 0
vn 1 -0 0
vn 1 -0 0
vn -1 -0 0
vn -1 -0 0
vt 0.10042 0.27702
vt 0.10262 0.23097
vt 0.42037 0.00987
vt 0.42037 0.00987
usemtl mat0
f 1/1/1 2/1/1 3/1/1
f 3/1/1 4/1/1 1/1/1
f 5/1/2 6/1/2 2/1/2
f 2/1/2 1/1/2 5/1/2
f 7/1/3 8/1/3 6/1/3
f 6/1/3 5/1/3 7/1/3
f 9/1/4 10/1/4 11/1/4
f 11/1/4 12/1/4 9/1/4
f 5/1/5 1/1/5 4/1/5
f 4/1/5 7/1/5 5/1/5
f 2/1/6 6/1/6 8/1/6
f 8/1/6 3/1/6 2/1/6
f 3/1/7 8/1/8 13/1/9
f 13/1/9 14/1/7 3/1/7
f 4/1/10 3/1/10 14/1/10
f 14/1/10 15/1/10 4/1/10
f 7/1/11 4/1/12 15/1/12
f 15/1/12 16/1/13 7/1/11
f 16/1/14 13/1/14 8/1/15
f 8/1/15 7/1/15 16/1/14
f 17/1/16 18/1/17 19/1/18
f 19/1/18 20/1/19 17/1/16
f 21/1/20 17/1/20 20/1/20
f 20/1/20 22/1/20 21/1/20
f 23/1/21 21/1/22 22/1/23
f 22/1/23 24/1/24 23/1/21
f 24/1/25 19/1/25 18/1/25
f 18/1/25 23/1/25 24/1/25
f 12/1/3 11/1/3 19/1/3
f 19/1/3 24/1/3 12/1/3
f 20/1/6 19/1/6 11/1/6
f 11/1/6 10/1/6 20/1/6
f 22/1/1 20/1/1 10/1/1
f 10/1/1 9/1/1 22/1/1
f 24/1/5 22/1/5 9/1/5
f 9/1/5 12/1/5 24/1/5
f 14/1/6 13/1/6 18/1/6
f 18/1/6 17/1/6 14/1/6
f 23/1/3 18/1/3 13/1/3
f 13/1/3 16/1/3 23/1/3
f 16/1/5 15/1/5 21/1/5
f 21/1/5 23/1/5 16/1/5
f 15/1/1 14/1/1 17/1/1
f 17/1/1 21/1/1 15/1/1
f 25/2/26 26/2/26 27/2/26
f 27/2/26 28/2/26 25/2/26
f 29/2/27 30/2/27 26/2/28
f 26/2/28 25/2/29 29/2/27
f 31/2/30 32/2/30 30/2/30
f 30/2/30 29/2/30 31/2/30
f 28/2/6 27/2/6 32/2/6
f 32/2/6 31/2/6 28/2/6
f 33/3/31 34/4/31 35/4/31
f 35/4/31 36/3/31 33/3/31
f 37/2/32 38/2/32 39/2/32
f 39/2/32 40/2/32 37/2/32
f 41/2/33 42/2/33 43/2/33
f 43/2/33 44/2/33 41/2/33
f 45/2/34 46/2/34 47/2/34
f 47/2/34 48/2/34 45/2/34
f 37/2/35 40/2/36 45/2/35
f 45/2/35 48/2/36 37/2/35
f 39/2/6 38/2/6 47/2/6
f 47/2/6 46/2/6 39/2/6
f 44/2/37 43/2/37 38/2/38
f 38/2/38 37/2/38 44/2/37
f 41/2/39 44/2/40 37/2/41
f 37/2/41 48/2/41 41/2/39
f 42/2/42 41/2/42 48/2/43
f 48/2/43 47/2/42 42/2/42
f 43/2/44 42/2/45 47/2/46
f 47/2/46 38/2/47 43/2/44
f 49/2/48 50/2/49 46/2/50
f 46/2/50 45/2/49 49/2/48
f 51/2/51 49/2/51 45/2/51
f 45/2/51 40/2/52 51/2/51
f 52/2/53 51/2/54 40/2/55
f 40/2/55 39/2/55 52/2/53
f 50/2/56 52/2/56 39/2/57
f 39/2/57 46/2/58 50/2/56
f 53/2/59 54/2/60 50/2/60
f 50/2/60 49/2/61 53/2/59
f 55/2/62 53/2/63 49/2/64
f 49/2/64 51/2/65 55/2/62
f 56/2/66 55/2/67 51/2/66
f 51/2/66 52/2/67 56/2/66
f 54/2/68 56/2/69 52/2/70
f 52/2/70 50/2/71 54/2/68
f 57/3/72 58/4/72 59/4/72
f 59/4/72 60/3/72 57/3/72
f 61/2/73 62/2/73 63/2/73
f 63/2/73 64/2/73 61/2/73
f 65/2/74 66/2/74 67/2/74
f 67/2/74 68/2/74 65/2/74
f 69/2/75 70/2/75 71/2/75
f 71/2/75 72/2/75 69/2/75
f 61/2/76 64/2/76 69/2/76
f 69/2/76 72/2/76 61/2/76
f 63/2/77 62/2/77 71/2/77
f 71/2/77 70/2/77 63/2/77
f 68/2/78 67/2/78 62/2/79
f 62/2/79 61/2/79 68/2/78
f 65/2/80 68/2/81 61/2/82
f 61/2/82 72/2/83 65/2/80
f 66/2/84 65/2/84 72/2/85
f 72/2/85 71/2/85 66/2/84
f 67/2/86 66/2/87 71/2/88
f 71/2/88 62/2/89 67/2/86
f 73/2/90 74/2/91 70/2/91
f 70/2/91 69/2/91 73/2/90
f 75/2/92 73/2/93 69/2/94
f 69/2/94 64/2/93 75/2/92
f 76/2/95 75/2/96 64/2/97
f 64/2/97 63/2/95 76/2/95
f 74/2/98 76/2/99 63/2/100
f 63/2/100 70/2/101 74/2/98
f 77/2/102 78/2/102 74/2/102
f 74/2/102 73/2/103 77/2/102
f 79/2/104 77/2/105 73/2/106
f 73/2/106 75/2/107 79/2/104
f 80/2/108 79/2/108 75/2/109
f 75/2/109 76/2/110 80/2/108
f 78/2/111 80/2/112 76/2/112
f 76/2/112 74/2/113 78/2/111
f 81/2/114 82/2/114 83/2/114
f 83/2/114 84/2/114 81/2/114
f 85/2/5 86/2/5 82/2/5
f 82/2/5 81/2/5 85/2/5
f 87/2/115 88/2/115 86/2/115
f 86/2/115 85/2/115 87/2/115
f 84/2/6 83/2/6 88/2/6
f 88/2/6 87/2/6 84/2/6
f 89/4/116 90/3/116 91/3/116
f 91/3/116 92/4/116 89/4/116
f 93/2/117 94/2/117 95/2/117
f 95/2/117 96/2/117 93/2/117
f 97/2/118 98/2/118 99/2/118
f 99/2/118 100/2/118 97/2/118
f 101/2/119 102/2/119 103/2/119
f 103/2/119 104/2/119 101/2/119
f 93/2/120 96/2/121 101/2/120
f 101/2/120 104/2/121 93/2/120
f 95/2/6 94/2/6 103/2/6
f 103/2/6 102/2/6 95/2/6
f 100/2/122 99/2/122 94/2/123
f 94/2/123 93/2/123 100/2/122
f 97/2/39 100/2/40 93/2/41
f 93/2/41 104/2/41 97/2/39
f 98/2/124 97/2/124 104/2/124
f 104/2/124 103/2/124 98/2/124
f 99/2/125 98/2/126 103/2/127
f 103/2/127 94/2/126 99/2/125
f 105/2/128 106/2/129 102/2/130
f 102/2/130 101/2/128 105/2/128
f 107/2/131 105/2/131 101/2/131
f 101/2/131 96/2/132 107/2/131
f 108/2/133 107/2/133 96/2/134
f 96/2/134 95/2/133 108/2/133
f 106/2/135 108/2/135 95/2/136
f 95/2/136 102/2/136 106/2/135
f 109/2/137 110/2/138 106/2/139
f 106/2/139 105/2/138 109/2/137
f 111/2/140 109/2/141 105/2/141
f 105/2/141 107/2/142 111/2/140
f 112/2/143 111/2/144 107/2/143
f 107/2/143 108/2/144 112/2/143
f 110/2/145 112/2/146 108/2/145
f 108/2/145 106/2/147 110/2/145
f 113/4/31 114/3/31 115/3/31
f 115/3/31 116/4/31 113/4/31
f 117/2/73 118/2/73 119/2/73
f 119/2/73 120/2/73 117/2/73
f 121/2/148 122/2/148 123/2/148
f 123/2/148 124/2/148 121/2/148
f 125/2/149 126/2/149 127/2/149
f 127/2/149 128/2/149 125/2/149
f 117/2/5 120/2/5 125/2/5
f 125/2/5 128/2/5 117/2/5
f 119/2/150 118/2/150 127/2/150
f 127/2/150 126/2/150 119/2/150
f 124/2/151 123/2/151 118/2/152
f 118/2/152 117/2/152 124/2/151
f 121/2/153 124/2/154 117/2/155
f 117/2/155 128/2/156 121/2/153
f 122/2/157 121/2/158 128/2/158
f 128/2/158 127/2/157 122/2/157
f 123/2/86 122/2/88 127/2/89
f 127/2/89 118/2/86 123/2/86
f 129/2/159 130/2/159 126/2/159
f 126/2/159 125/2/159 129/2/159
f 131/2/160 129/2/161 125/2/160
f 125/2/160 120/2/162 131/2/160
f 132/2/163 131/2/163 120/2/164
f 120/2/164 119/2/163 132/2/163
f 130/2/165 132/2/166 119/2/167
f 119/2/167 126/2/165 130/2/165
f 133/2/168 134/2/169 130/2/168
f 130/2/168 129/2/168 133/2/168
f 135/2/170 133/2/171 129/2/172
f 129/2/172 131/2/172 135/2/170
f 136/2/173 135/2/174 131/2/174
f 131/2/174 132/2/174 136/2/173
f 134/2/175 136/2/175 132/2/176
f 132/2/176 130/2/177 134/2/175
f 137/2/178 138/2/178 139/2/178
f 139/2/178 140/2/178 137/2/178
f 141/2/179 142/2/179 138/2/179
f 138/2/179 137/2/179 141/2/179
f 143/2/180 144/2/180 142/2/180
f 142/2/180 141/2/180 143/2/180
f 140/2/181 139/2/181 144/2/181
f 144/2/181 143/2/181 140/2/181
f 141/2/182 137/2/183 140/2/184
f 140/2/184 143/2/184 141/2/182
f 138/2/185 142/2/185 144/2/186
f 144/2/186 139/2/186 138/2/185
# Vertices: 144, normals: 186, texture coordinates: 4, faces: 216

